<svg xmlns="http://www.w3.org/2000/svg" width="152" height="109" viewBox="0 0 152 109">
    <g fill="none" fill-rule="evenodd">
        <path fill="#FF7E30" d="M83 32.207c0 3.147-2.525 5.7-5.639 5.7-3.114 0-5.639-2.553-5.639-5.7 0-3.148 2.525-5.7 5.64-5.7 3.113 0 5.638 2.552 5.638 5.7z"/>
        <rect width="152" height="11" fill="#FF7E30" rx="5.5"/>
        <path fill="#FF7E30" d="M105.167 32.207c0 3.147-2.525 5.7-5.64 5.7-3.114 0-5.638-2.553-5.638-5.7 0-3.148 2.524-5.7 5.638-5.7 3.115 0 5.64 2.552 5.64 5.7zM93.889 54.615c0 3.148-2.525 5.7-5.638 5.7-3.115 0-5.64-2.552-5.64-5.7s2.525-5.7 5.64-5.7c3.113 0 5.638 2.552 5.638 5.7zM69.389 54.615c0 3.148-2.525 5.7-5.64 5.7-3.113 0-5.638-2.552-5.638-5.7s2.525-5.7 5.638-5.7c3.115 0 5.64 2.552 5.64 5.7zM58.111 32.207c0 3.147-2.524 5.7-5.638 5.7-3.115 0-5.64-2.553-5.64-5.7 0-3.148 2.525-5.7 5.64-5.7 3.114 0 5.638 2.552 5.638 5.7z"/>
        <path fill-rule="nonzero" stroke="#FF7E30" stroke-linecap="round" stroke-linejoin="round" stroke-width="8" d="M121.988 73.31H31.012L18.94 6.027H134.06z"/>
        <path fill="#FFF" fill-rule="nonzero" d="M106.421 82.66c7.122 0 12.912 5.912 12.912 13.17S113.543 109 106.421 109c-3.474 0-6.745-1.376-9.264-3.863-2.519-2.517-3.88-5.795-3.88-9.307 0-3.512 1.39-6.79 3.88-9.307 2.49-2.487 5.79-3.863 9.264-3.863zm0 20.487c3.938 0 7.122-3.278 7.122-7.317s-3.184-7.316-7.122-7.316c-3.995 0-7.353 3.336-7.353 7.316s3.358 7.317 7.353 7.317zM50.255 82.66c7.122 0 12.912 5.912 12.912 13.17S57.377 109 50.255 109c-3.474 0-6.746-1.376-9.265-3.863-2.518-2.517-3.879-5.795-3.879-9.307 0-3.512 1.39-6.79 3.88-9.307 2.49-2.487 5.79-3.863 9.264-3.863zm0 20.487c3.937 0 7.122-3.278 7.122-7.317s-3.185-7.316-7.122-7.316c-3.995 0-7.354 3.336-7.354 7.316s3.359 7.317 7.354 7.317z"/>
    </g>
</svg>
