<svg xmlns="http://www.w3.org/2000/svg" width="87" height="113" viewBox="0 0 87 113">
    <g fill="none" fill-rule="evenodd">
        <path fill="#FF7E30" fill-rule="nonzero" d="M75.944 8.294L67.603 0l-8.035 7.99L51.534 0 43.5 7.99 35.466 0l-8.034 7.99L19.397 0l-8.34 8.294L0 0v113h87V0L75.944 8.294zM65.726 93H21.274L13 86h61l-8.274 7zM15 96.5L7 103V90l8 6.5zm6.274 2.5h44.452L74 106H13l8.274-7zM73 96.5l8-6.5v13l-8-6.5zM11.965 16.736L19.621 9l7.96 8.043L35.54 9l7.959 8.043L51.46 9l7.959 8.043L67.379 9l7.655 7.736L80 12.951V80H7V12.951l4.965 3.785z"/>
        <path fill="#FFF" d="M59.404 38.451l-2.896-2.862A1.982 1.982 0 0 0 55.061 35c-.568 0-1.05.196-1.448.59L39.646 49.414l-6.259-6.208a1.982 1.982 0 0 0-1.448-.59c-.567 0-1.05.197-1.447.59l-2.896 2.862c-.397.393-.596.87-.596 1.431s.199 1.039.596 1.431l7.707 7.618L38.2 59.41c.397.393.88.589 1.447.589.568 0 1.05-.197 1.448-.59l2.896-2.861 15.414-15.236c.397-.393.596-.87.596-1.431s-.199-1.038-.596-1.43z"/>
    </g>
</svg>
