<svg xmlns="http://www.w3.org/2000/svg" width="155" height="132" viewBox="0 0 155 132">
    <g fill="none" fill-rule="evenodd">
        <path fill="#FFF" fill-rule="nonzero" stroke="#FFF" stroke-width="3" d="M150.483 86H4.517C3.127 86 2 86.894 2 88c0 23.158 23.707 42 52.85 42h45.3c29.14 0 52.85-18.842 52.85-42 0-1.106-1.125-2-2.517-2zm-51.301 40H53.818C28.261 126 7.316 110.028 6 90h141c-1.315 20.028-22.26 36-47.818 36z"/>
        <g fill="#FF7E30" stroke="#FF7E1E">
            <path fill-rule="nonzero" d="M127 31.35c0-.157-.002-.315-.017-.556-.334-3.592-2.803-6.542-6.064-7.65l2.452-2.452c4.253-4.165 4.68-10.83.958-15.535-3.986-4.844-11.17-5.533-16.012-1.549-.275.228-.541.468-.808.735l-2.664 2.704a9.04 9.04 0 0 0-7.719-6.034c-4.798-.262-8.86 3.42-9.118 8.191-.009.158-.01.316-.01.472v3.322a8.613 8.613 0 0 0-4.882-1.149c-4.631.431-8.195 4.411-8.117 9.025v2.947a8.636 8.636 0 0 0-4.878-1.14c-4.634.431-8.198 4.41-8.12 9.025v32.128c0 1.198.97 2.166 2.167 2.166h36.828c4.778 0 8.665-3.887 8.663-8.661a8.6 8.6 0 0 0-1.164-4.333h2.927c4.653.128 8.633-3.488 9.068-8.204a8.612 8.612 0 0 0-1.185-4.848 8.61 8.61 0 0 0 5.15-2.476A8.61 8.61 0 0 0 127 31.35zm-5.605 3.06a4.311 4.311 0 0 1-3.063 1.263h-6.506a2.166 2.166 0 1 0 0 4.333l.24.006c2.386.128 4.224 2.173 4.102 4.474a4.617 4.617 0 0 1-4.71 4.185h-10.463a2.166 2.166 0 1 0 0 4.333 4.337 4.337 0 0 1 4.333 4.333 4.337 4.337 0 0 1-4.333 4.333H66.334v-30c-.042-2.399 1.8-4.45 4.103-4.667l.236-.007a4.336 4.336 0 0 1 4.326 4.326v.016c0 1.196.968 2.166 2.164 2.166h.002a2.167 2.167 0 0 0 2.167-2.164V20.838c-.041-2.399 1.8-4.45 4.103-4.667l.234-.007a4.34 4.34 0 0 1 4.328 4.33v.014c0 1.196.969 2.166 2.164 2.166h.003a2.167 2.167 0 0 0 2.166-2.164V9.676l.007-.24c.125-2.386 2.123-4.222 4.471-4.103 2.392.223 4.23 2.274 4.185 4.714v1.798a2.167 2.167 0 0 0 3.71 1.518l5.876-5.964a7.34 7.34 0 0 1 .497-.448c2.998-2.465 7.44-2.037 9.885.927a7.276 7.276 0 0 1-.635 9.734l-5.698 5.697a2.167 2.167 0 0 0 1.532 3.698h1.913c2.365 0 4.376 1.825 4.588 4.103l.006.239a4.307 4.307 0 0 1-1.272 3.06z"/>
            <path d="M50.69 74.204l59.836-59.767 3.022 3.019-59.836 59.767z"/>
            <path d="M98 19h3v11h-3zM85 29h3v13h-3zM73 39h3v15h-3z"/>
            <path d="M99 28h11v3H99zM87 40h12v3H87zM73 54h15v3H73zM135 13v4.5c2.206 0 4 2.018 4 4.5s-1.794 4.5-4 4.5V31c4.412 0 8-4.037 8-9s-3.588-9-8-9zM123 71c-4.963 0-9 3.14-9 7h4.5c0-1.93 2.018-3.5 4.5-3.5s4.5 1.57 4.5 3.5h4.5c0-3.86-4.037-7-9-7z"/>
            <path fill-rule="nonzero" d="M43.5 48.545h-.268C42.284 44.786 38.955 42 35 42c-3.955 0-7.287 2.786-8.232 6.545H26.5c-4.688 0-8.5 3.915-8.5 8.728S21.812 66 26.5 66h17c4.688 0 8.5-3.914 8.5-8.727 0-4.813-3.812-8.728-8.5-8.728zm0 13.094h-17c-2.344 0-4.25-1.958-4.25-4.364 0-2.407 1.906-4.364 4.25-4.364h2.125c1.173 0 2.125-.977 2.125-2.182 0-2.406 1.906-4.363 4.25-4.363 2.344 0 4.25 1.957 4.25 4.363 0 1.205.952 2.182 2.125 2.182H43.5c2.344 0 4.25 1.957 4.25 4.364s-1.906 4.364-4.25 4.364z"/>
            <path fill-rule="nonzero" d="M39 62h-8c-1.104 0-2 .97-2 2.167v8.666c0 1.199.896 2.167 2 2.167h8c1.104 0 2-.968 2-2.167v-8.666C41 62.97 40.104 62 39 62zm-2 8.667h-4v-4.334h4v4.334zM43 14c-3.308 0-6 2.916-6 6.5s2.692 6.5 6 6.5 6-2.916 6-6.5-2.692-6.5-6-6.5zm0 8.669c-1.104 0-2-.973-2-2.167s.896-2.167 2-2.167 2 .971 2 2.167c0 1.196-.896 2.167-2 2.167zM135 48c-3.308 0-6 2.916-6 6.5s2.692 6.5 6 6.5 6-2.916 6-6.5-2.692-6.5-6-6.5zm0 8.669c-1.104 0-2-.973-2-2.167s.896-2.167 2-2.167 2 .971 2 2.167c0 1.196-.896 2.167-2 2.167z"/>
            <path fill-rule="nonzero" d="M43 4c-8.27 0-15 6.729-15 15s6.73 15 15 15 15-6.729 15-15S51.27 4 43 4zm0 25.716c-5.908 0-10.714-4.808-10.714-10.714 0-5.908 4.806-10.714 10.714-10.714s10.714 4.806 10.714 10.714S48.908 29.716 43 29.716z"/>
        </g>
    </g>
</svg>
