<svg xmlns="http://www.w3.org/2000/svg" width="149" height="104" viewBox="0 0 149 104">
    <g fill="none" fill-rule="evenodd">
        <path fill="#FF7E30" fill-rule="nonzero" d="M99.397 15.457h29.353c1.598-5.518 5.704-11.932 14.4-13.8l.02.1-.014-.1a24.16 24.16 0 0 1 5.116-.552l.513 10.205-3.785.41c-6.49 1.495-7.163 7.907-7.23 8.988l.027 53.618c0 15.967-12.52 28.954-27.908 28.954H39.053c-15.41 0-27.93-12.989-27.93-28.952l.026-53.627c-.064-1.044-.734-7.485-7.229-8.98L.132 11.31.644 1.105c1.71 0 3.385.181 5.12.553l-.003.019.004-.02c8.976 1.93 12.907 8.584 14.418 13.8H46.13c1.16 3.411 2.757 6.823 3.801 10.234H21.006l-.023 48.64c0 10.319 8.096 18.718 18.047 18.718h70.836c9.972 0 18.067-8.4 18.067-18.721l-.023-48.637h-24.712c-1.044-3.411-2.641-6.823-3.8-10.234zm-9.127 0c1.16 3.411 2.757 6.823 3.8 10.234H81.128c-1.044-3.411-2.642-6.823-3.801-10.234H90.27zm-22.072 0c1.16 3.411 2.757 6.823 3.801 10.234H59.056c-1.044-3.411-2.641-6.823-3.8-10.234h12.942z"/>
        <path fill="#FFF" d="M48.184 42c11.028-14-11.029-28 0-42h9.186c-11.025 14 11.03 28 0 42h-9.186zm22.22 0c11.028-14-11.03-28 0-42h9.19c-11.03 14 11.028 28 0 42h-9.19zm22.222 0c11.029-14-11.028-28 0-42h9.19c-11.028 14 11.029 28 0 42h-9.19z"/>
    </g>
</svg>
