<svg xmlns="http://www.w3.org/2000/svg" width="116" height="26" viewBox="0 0 116 26">
    <g fill="none" fill-rule="evenodd">
        <text fill="#FF7E30" font-family="HelveticaNeue-Bold, Helvetica Neue" font-size="20" font-weight="bold" transform="translate(44 1)">
            <tspan x="0" y="20">Hot.Pot</tspan>
        </text>
        <g fill="#000">
            <path fill-rule="nonzero" d="M25.284 4.17h7.376c.402-1.361 1.433-2.943 3.619-3.403l.005.024-.004-.024A6.183 6.183 0 0 1 37.566.63l.129 2.516-.951.1c-1.631.37-1.8 1.95-1.817 2.217l.007 13.22c0 3.936-3.147 7.139-7.013 7.139H10.12c-3.872 0-7.018-3.203-7.018-7.139l.006-13.222c-.016-.257-.184-1.845-1.816-2.214L.34 3.147.468.63c.43 0 .85.044 1.287.136V.77.767c2.256.475 3.244 2.116 3.623 3.402h6.52c.292.841.693 1.682.956 2.523H5.585L5.58 18.685c0 2.544 2.035 4.615 4.535 4.615h17.8c2.507 0 4.54-2.07 4.54-4.616L32.45 6.692h-6.21c-.262-.84-.664-1.682-.955-2.523zm-2.294 0c.292.84.693 1.681.956 2.522h-3.253c-.263-.84-.664-1.682-.955-2.523h3.252zm-5.546 0c.291.84.693 1.681.955 2.522h-3.252c-.263-.84-.664-1.682-.955-2.523h3.252z"/>
            <path d="M12.328 10.39c2.752-3.404-2.753-6.808 0-10.213h2.293c-2.752 3.405 2.752 6.81 0 10.214h-2.293zm5.545 0c2.753-3.404-2.752-6.808 0-10.213h2.294c-2.753 3.405 2.752 6.81 0 10.214h-2.294zm5.547 0c2.752-3.404-2.753-6.808 0-10.213h2.293c-2.752 3.405 2.753 6.81 0 10.214H23.42z"/>
        </g>
    </g>
</svg>
